<mxfile host="app.diagrams.net" modified="2023-06-29T13:53:29.840Z" agent="Mozilla/5.0 (Macintosh; Intel Mac OS X 10_15_7) AppleWebKit/537.36 (KHTML, like Gecko) Chrome/114.0.0.0 Safari/537.36" etag="sj6XGq_TXP47A7Zln5N-" version="21.5.2" type="github">
  <diagram id="R2lEEEUBdFMjLlhIrx00" name="Page-1">
    <mxGraphModel dx="1026" dy="603" grid="1" gridSize="10" guides="1" tooltips="1" connect="1" arrows="1" fold="1" page="1" pageScale="1" pageWidth="850" pageHeight="1100" math="0" shadow="0" extFonts="Permanent Marker^https://fonts.googleapis.com/css?family=Permanent+Marker">
      <root>
        <mxCell id="0" />
        <mxCell id="1" parent="0" />
        <mxCell id="9CFMrFx2wFYfTT2vhUbC-2" value="EBRR_COST_VARIANCE.0.1&lt;br&gt;&lt;br&gt;- T&amp;amp;M billing" style="rounded=0;whiteSpace=wrap;html=1;" vertex="1" parent="1">
          <mxGeometry x="100" y="90" width="190" height="100" as="geometry" />
        </mxCell>
        <mxCell id="9CFMrFx2wFYfTT2vhUbC-3" value="EBRR_COST_VARIANCE.1.1&lt;br&gt;&lt;br&gt;- Planned costs = 1000 EUR&lt;br&gt;- Actual costs = 1000 EUR" style="rounded=0;whiteSpace=wrap;html=1;" vertex="1" parent="1">
          <mxGeometry x="370" y="90" width="190" height="100" as="geometry" />
        </mxCell>
        <mxCell id="9CFMrFx2wFYfTT2vhUbC-4" value="EBRR_COST_VARIANCE.1.2&lt;br&gt;&lt;br&gt;- Planned costs = 0 EUR&lt;br&gt;- Actual costs = &lt;b&gt;&lt;font color=&quot;#ff0000&quot;&gt;0 EUR&lt;/font&gt;&lt;/b&gt;" style="rounded=0;whiteSpace=wrap;html=1;" vertex="1" parent="1">
          <mxGeometry x="370" y="220" width="190" height="100" as="geometry" />
        </mxCell>
        <mxCell id="9CFMrFx2wFYfTT2vhUbC-5" value="" style="endArrow=classic;html=1;rounded=0;exitX=1;exitY=0.5;exitDx=0;exitDy=0;entryX=0;entryY=0.5;entryDx=0;entryDy=0;" edge="1" parent="1" source="9CFMrFx2wFYfTT2vhUbC-2" target="9CFMrFx2wFYfTT2vhUbC-3">
          <mxGeometry width="50" height="50" relative="1" as="geometry">
            <mxPoint x="400" y="340" as="sourcePoint" />
            <mxPoint x="360" y="160" as="targetPoint" />
          </mxGeometry>
        </mxCell>
        <mxCell id="9CFMrFx2wFYfTT2vhUbC-6" value="" style="endArrow=classic;html=1;rounded=0;exitX=0.5;exitY=1;exitDx=0;exitDy=0;entryX=0;entryY=0.5;entryDx=0;entryDy=0;" edge="1" parent="1" source="9CFMrFx2wFYfTT2vhUbC-2" target="9CFMrFx2wFYfTT2vhUbC-4">
          <mxGeometry width="50" height="50" relative="1" as="geometry">
            <mxPoint x="300" y="150" as="sourcePoint" />
            <mxPoint x="380" y="150" as="targetPoint" />
          </mxGeometry>
        </mxCell>
        <mxCell id="9CFMrFx2wFYfTT2vhUbC-7" value="EBRR_COST_VARIANCE.0.1&lt;br&gt;&lt;br&gt;- T&amp;amp;M billing" style="rounded=0;whiteSpace=wrap;html=1;" vertex="1" parent="1">
          <mxGeometry x="100" y="340" width="190" height="100" as="geometry" />
        </mxCell>
        <mxCell id="9CFMrFx2wFYfTT2vhUbC-8" value="EBRR_COST_VARIANCE.1.1&lt;br&gt;&lt;br&gt;- Planned costs = 1000 EUR&lt;br&gt;- Actual costs = &lt;b&gt;&lt;font color=&quot;#ff0000&quot;&gt;2000&lt;/font&gt;&lt;/b&gt; EUR" style="rounded=0;whiteSpace=wrap;html=1;" vertex="1" parent="1">
          <mxGeometry x="370" y="340" width="190" height="100" as="geometry" />
        </mxCell>
        <mxCell id="9CFMrFx2wFYfTT2vhUbC-9" value="EBRR_COST_VARIANCE.1.2&lt;br&gt;&lt;br&gt;- Planned costs = 0 EUR&lt;br&gt;- Actual costs = &lt;b&gt;&lt;font color=&quot;#ff0000&quot;&gt;0 EUR&lt;/font&gt;&lt;/b&gt;" style="rounded=0;whiteSpace=wrap;html=1;" vertex="1" parent="1">
          <mxGeometry x="370" y="470" width="190" height="100" as="geometry" />
        </mxCell>
        <mxCell id="9CFMrFx2wFYfTT2vhUbC-10" value="" style="endArrow=classic;html=1;rounded=0;exitX=1;exitY=0.5;exitDx=0;exitDy=0;entryX=0;entryY=0.5;entryDx=0;entryDy=0;" edge="1" parent="1" source="9CFMrFx2wFYfTT2vhUbC-7" target="9CFMrFx2wFYfTT2vhUbC-8">
          <mxGeometry width="50" height="50" relative="1" as="geometry">
            <mxPoint x="400" y="590" as="sourcePoint" />
            <mxPoint x="360" y="410" as="targetPoint" />
          </mxGeometry>
        </mxCell>
        <mxCell id="9CFMrFx2wFYfTT2vhUbC-11" value="" style="endArrow=classic;html=1;rounded=0;exitX=0.5;exitY=1;exitDx=0;exitDy=0;entryX=0;entryY=0.5;entryDx=0;entryDy=0;" edge="1" parent="1" source="9CFMrFx2wFYfTT2vhUbC-7" target="9CFMrFx2wFYfTT2vhUbC-9">
          <mxGeometry width="50" height="50" relative="1" as="geometry">
            <mxPoint x="300" y="400" as="sourcePoint" />
            <mxPoint x="380" y="400" as="targetPoint" />
          </mxGeometry>
        </mxCell>
        <mxCell id="9CFMrFx2wFYfTT2vhUbC-12" value="" style="endArrow=none;dashed=1;html=1;dashPattern=1 3;strokeWidth=6;rounded=0;" edge="1" parent="1">
          <mxGeometry width="50" height="50" relative="1" as="geometry">
            <mxPoint x="50" y="330" as="sourcePoint" />
            <mxPoint x="790" y="330" as="targetPoint" />
          </mxGeometry>
        </mxCell>
        <mxCell id="9CFMrFx2wFYfTT2vhUbC-13" value="1. Posting of actual costs&lt;br&gt;&lt;br&gt;POC = Actual / Planned = 1000 (1000 + 0) =100%" style="whiteSpace=wrap;html=1;rounded=1;arcSize=50;align=center;verticalAlign=middle;strokeWidth=1;autosize=1;spacing=4;treeFolding=1;treeMoving=1;newEdgeStyle={&quot;edgeStyle&quot;:&quot;entityRelationEdgeStyle&quot;,&quot;startArrow&quot;:&quot;none&quot;,&quot;endArrow&quot;:&quot;none&quot;,&quot;segment&quot;:10,&quot;curved&quot;:1,&quot;sourcePerimeterSpacing&quot;:0,&quot;targetPerimeterSpacing&quot;:0};" vertex="1" parent="1">
          <mxGeometry x="570" y="90" width="310" height="60" as="geometry" />
        </mxCell>
        <mxCell id="9CFMrFx2wFYfTT2vhUbC-15" value="2. Posting additional actual costs (actual costs are now higher than planned)&lt;br&gt;&lt;br&gt;POC = Actual / Planned = 2000 (&lt;b&gt;&lt;font color=&quot;#ff0000&quot;&gt;2000&lt;/font&gt;&lt;/b&gt; + 0) =100%" style="whiteSpace=wrap;html=1;rounded=1;arcSize=50;align=center;verticalAlign=middle;strokeWidth=1;autosize=1;spacing=4;treeFolding=1;treeMoving=1;newEdgeStyle={&quot;edgeStyle&quot;:&quot;entityRelationEdgeStyle&quot;,&quot;startArrow&quot;:&quot;none&quot;,&quot;endArrow&quot;:&quot;none&quot;,&quot;segment&quot;:10,&quot;curved&quot;:1,&quot;sourcePerimeterSpacing&quot;:0,&quot;targetPerimeterSpacing&quot;:0};" vertex="1" parent="1">
          <mxGeometry x="570" y="340" width="450" height="60" as="geometry" />
        </mxCell>
        <mxCell id="9CFMrFx2wFYfTT2vhUbC-16" value="EBRR_COST_VARIANCE.0.1&lt;br&gt;&lt;br&gt;- T&amp;amp;M billing" style="rounded=0;whiteSpace=wrap;html=1;" vertex="1" parent="1">
          <mxGeometry x="100" y="590" width="190" height="100" as="geometry" />
        </mxCell>
        <mxCell id="9CFMrFx2wFYfTT2vhUbC-17" value="EBRR_COST_VARIANCE.1.1&lt;br&gt;&lt;br&gt;- Planned costs = 1000 EUR&lt;br&gt;- Actual costs = 2000 EUR" style="rounded=0;whiteSpace=wrap;html=1;" vertex="1" parent="1">
          <mxGeometry x="370" y="590" width="190" height="100" as="geometry" />
        </mxCell>
        <mxCell id="9CFMrFx2wFYfTT2vhUbC-18" value="EBRR_COST_VARIANCE.1.2&lt;br&gt;&lt;br&gt;- Planned costs = 0 EUR&lt;br&gt;- Actual costs = &lt;b&gt;&lt;font color=&quot;#ff0000&quot;&gt;-500 EUR&lt;/font&gt;&lt;/b&gt;" style="rounded=0;whiteSpace=wrap;html=1;" vertex="1" parent="1">
          <mxGeometry x="370" y="720" width="190" height="100" as="geometry" />
        </mxCell>
        <mxCell id="9CFMrFx2wFYfTT2vhUbC-19" value="" style="endArrow=classic;html=1;rounded=0;exitX=1;exitY=0.5;exitDx=0;exitDy=0;entryX=0;entryY=0.5;entryDx=0;entryDy=0;" edge="1" parent="1" source="9CFMrFx2wFYfTT2vhUbC-16" target="9CFMrFx2wFYfTT2vhUbC-17">
          <mxGeometry width="50" height="50" relative="1" as="geometry">
            <mxPoint x="400" y="840" as="sourcePoint" />
            <mxPoint x="360" y="660" as="targetPoint" />
          </mxGeometry>
        </mxCell>
        <mxCell id="9CFMrFx2wFYfTT2vhUbC-20" value="" style="endArrow=classic;html=1;rounded=0;exitX=0.5;exitY=1;exitDx=0;exitDy=0;entryX=0;entryY=0.5;entryDx=0;entryDy=0;" edge="1" parent="1" source="9CFMrFx2wFYfTT2vhUbC-16" target="9CFMrFx2wFYfTT2vhUbC-18">
          <mxGeometry width="50" height="50" relative="1" as="geometry">
            <mxPoint x="300" y="650" as="sourcePoint" />
            <mxPoint x="380" y="650" as="targetPoint" />
          </mxGeometry>
        </mxCell>
        <mxCell id="9CFMrFx2wFYfTT2vhUbC-21" value="" style="endArrow=none;dashed=1;html=1;dashPattern=1 3;strokeWidth=6;rounded=0;" edge="1" parent="1">
          <mxGeometry width="50" height="50" relative="1" as="geometry">
            <mxPoint x="50" y="580" as="sourcePoint" />
            <mxPoint x="790" y="580" as="targetPoint" />
          </mxGeometry>
        </mxCell>
        <mxCell id="9CFMrFx2wFYfTT2vhUbC-22" value="3. Posting of cost variance (negative costs) to a WBS with planned costs of 0)&lt;br&gt;&lt;br&gt;POC = Actual / Planned = 1500 (&lt;b&gt;&lt;font color=&quot;#ff0000&quot;&gt;2000&lt;/font&gt;&lt;/b&gt; + 0) =&amp;nbsp;&lt;b&gt;&lt;font color=&quot;#ff0000&quot;&gt;75%&lt;br&gt;&lt;br&gt;Customer expects the POC = 100%&lt;br&gt;...&lt;/font&gt;&lt;/b&gt;&lt;font color=&quot;#ff0000&quot;&gt;POC is NOT calculated like in APP: Customer project&lt;/font&gt;&lt;b&gt;&lt;font color=&quot;#ff0000&quot;&gt;&lt;br&gt;&lt;/font&gt;&lt;/b&gt;" style="whiteSpace=wrap;html=1;rounded=1;arcSize=50;align=center;verticalAlign=middle;strokeWidth=1;autosize=1;spacing=4;treeFolding=1;treeMoving=1;newEdgeStyle={&quot;edgeStyle&quot;:&quot;entityRelationEdgeStyle&quot;,&quot;startArrow&quot;:&quot;none&quot;,&quot;endArrow&quot;:&quot;none&quot;,&quot;segment&quot;:10,&quot;curved&quot;:1,&quot;sourcePerimeterSpacing&quot;:0,&quot;targetPerimeterSpacing&quot;:0};" vertex="1" parent="1">
          <mxGeometry x="570" y="585" width="460" height="100" as="geometry" />
        </mxCell>
      </root>
    </mxGraphModel>
  </diagram>
</mxfile>
